<svg width="48" height="48" viewBox="0 0 48 48" fill="none" xmlns="http://www.w3.org/2000/svg">
<path d="M46.6406 31.1906V17.7656H47.25C47.6625 17.7656 48 17.4282 48 17.0156C48 16.6031 47.6625 16.2656 47.25 16.2656H46.6406V14.4562C46.6406 14.0437 46.3031 13.7062 45.8906 13.7062C45.4782 13.7062 45.1406 14.0437 45.1406 14.4562V16.2656H44.5313C44.1187 16.2656 43.7813 16.6031 43.7813 17.0156C43.7813 17.4282 44.1187 17.7656 44.5313 17.7656H45.1406V31.1906C44.3718 31.4906 43.8282 32.2406 43.8282 33.1125V33.8531H41.6813C41.5875 33.8531 41.4844 33.8531 41.3906 33.8531V20.5593H41.7844C42.1969 20.5593 42.5344 20.2219 42.5344 19.8093C42.5344 19.3969 42.1969 19.0593 41.7844 19.0593H41.3906V17.2593C41.3906 16.8469 41.0531 16.5093 40.6406 16.5093C40.2282 16.5093 39.8906 16.8469 39.8906 17.2593V19.0593H39.4875C39.075 19.0593 38.7375 19.3969 38.7375 19.8093C38.7375 20.2219 39.075 20.5593 39.4875 20.5593H39.8906V33.7969C37.5938 33.6562 35.3156 33.2438 33.1031 32.5687C32.6906 32.0344 32.0438 31.6875 31.3218 31.6875H29.7375L26.3813 2.23124C26.25 1.03124 25.275 0.112488 24.0938 0.0281128V0.0187378C24.0656 0.0187378 24.0282 0.0187378 24 0.0187378C23.9718 0.0187378 23.9344 0.0187378 23.9062 0.0187378V0.0281128C22.725 0.112488 21.75 1.03124 21.6187 2.23124L18.2625 31.6969H16.6782C15.9562 31.6969 15.3094 32.0438 14.8969 32.5781C12.6844 33.2531 10.4062 33.6656 8.10936 33.8062V20.5593H8.51248C8.92496 20.5593 9.26248 20.2219 9.26248 19.8093C9.26248 19.3969 8.92496 19.0593 8.51248 19.0593H8.10936V17.2593C8.10936 16.8469 7.77187 16.5093 7.35938 16.5093C6.94687 16.5093 6.60938 16.8469 6.60938 17.2593V19.0593H6.21562C5.80313 19.0593 5.46562 19.3969 5.46562 19.8093C5.46562 20.2219 5.80313 20.5593 6.21562 20.5593H6.60938V33.8531C6.51562 33.8531 6.4125 33.8531 6.31875 33.8531H4.17187V33.1125C4.17187 32.2406 3.62813 31.4906 2.85938 31.1906V17.7656H3.46875C3.88125 17.7656 4.21875 17.4282 4.21875 17.0156C4.21875 16.6031 3.88125 16.2656 3.46875 16.2656H2.85938V14.4562C2.85938 14.0437 2.52187 13.7062 2.10938 13.7062C1.69687 13.7062 1.35938 14.0437 1.35938 14.4562V16.2656H0.75C0.3375 16.2656 0 16.6031 0 17.0156C0 17.4282 0.3375 17.7656 0.75 17.7656H1.35938V31.1906C0.590625 31.4906 0.046875 32.2406 0.046875 33.1125V41.7375C0.046875 42.8719 0.975 43.8 2.10938 43.8C2.925 43.8 3.6375 43.3219 3.975 42.6282L8.55 43.6219C11.2218 44.2031 13.9875 44.5125 16.7718 44.55V47.2406C16.7718 47.6531 17.1094 47.9906 17.5218 47.9906C17.9344 47.9906 18.2718 47.6531 18.2718 47.2406V44.925L18.7594 45.1313C20.4 45.825 22.125 46.1906 23.9062 46.2094C23.9344 46.2094 23.9718 46.2094 24 46.2094C24.0282 46.2094 24.0656 46.2094 24.0938 46.2094C25.875 46.1813 27.6094 45.825 29.2406 45.1313L29.7282 44.925V47.2406C29.7282 47.6531 30.0656 47.9906 30.4782 47.9906C30.8906 47.9906 31.2282 47.6531 31.2282 47.2406V44.5313C34.0969 44.475 36.9562 44.1282 39.7406 43.4813L43.9687 42.4969C44.2687 43.2562 45.0187 43.8 45.8813 43.8C47.0156 43.8 47.9438 42.8719 47.9438 41.7375V33.1125C47.9531 32.2406 47.4094 31.4906 46.6406 31.1906ZM32.0718 33.9469V38.6062C32.0718 39.4875 31.3594 40.2 30.4782 40.2C29.5969 40.2 28.8844 39.4875 28.8844 38.6062V33.9469C28.8844 33.5344 29.2218 33.1969 29.6344 33.1969H31.3218C31.7344 33.1969 32.0718 33.5344 32.0718 33.9469ZM24 1.51874C24.4594 1.56561 24.8438 1.92186 24.9 2.39999L25.3687 6.51561C24.975 6.37499 24.5156 6.26249 24.0094 6.26249C23.4938 6.26249 23.0344 6.36561 22.65 6.49687L23.1187 2.39999C23.1562 1.93124 23.5406 1.56561 24 1.51874ZM15.9282 33.9469C15.9282 33.5344 16.2656 33.1969 16.6782 33.1969H18.3656C18.7782 33.1969 19.1156 33.5344 19.1156 33.9469V38.6062C19.1156 39.4875 18.4031 40.2 17.5218 40.2C16.6406 40.2 15.9282 39.4875 15.9282 38.6062V33.9469ZM2.67187 41.7375C2.67187 42.0469 2.41875 42.3 2.10938 42.3C1.8 42.3 1.54687 42.0469 1.54687 41.7375V33.1125C1.54687 32.8031 1.8 32.55 2.10938 32.55C2.41875 32.55 2.67187 32.8031 2.67187 33.1125V41.7375ZM4.17187 41.1282V35.3531H6.31875C6.61875 35.3531 6.91875 35.3438 7.21875 35.3344C7.26562 35.3438 7.3125 35.3531 7.35938 35.3531C7.425 35.3531 7.49062 35.3438 7.54687 35.325C9.87184 35.2313 12.1782 34.875 14.4282 34.2656V38.5969C14.4282 40.0406 15.4313 41.2594 16.7718 41.5969V43.0313C14.1 43.0031 11.4375 42.7031 8.86872 42.1406L4.17187 41.1282ZM28.6594 43.7344C27.1782 44.3625 25.6125 44.6813 24 44.7C22.3875 44.6906 20.8218 44.3625 19.3406 43.7344L18.2718 43.2844V41.6062C19.6125 41.2687 20.6156 40.05 20.6156 38.6062V33.9469C20.6156 33.2156 20.2594 32.5594 19.7156 32.1469L22.4344 8.27815C22.6031 8.14687 23.1938 7.76249 24 7.76249C24.7313 7.76249 25.35 8.13751 25.5656 8.28751L28.2844 32.1469C27.7406 32.5594 27.3844 33.2062 27.3844 33.9469V38.6062C27.3844 40.05 28.3875 41.2687 29.7282 41.6062V43.2844L28.6594 43.7344ZM39.4031 42.0188C36.7313 42.6375 33.9844 42.9844 31.2282 43.0313V41.6062C32.5687 41.2687 33.5718 40.05 33.5718 38.6062V34.275C35.8218 34.8844 38.1282 35.2406 40.4531 35.3344C40.5094 35.3531 40.575 35.3625 40.6406 35.3625C40.6875 35.3625 40.7344 35.3531 40.7813 35.3438C41.0813 35.3531 41.3813 35.3625 41.6813 35.3625H43.8282V40.9969L39.4031 42.0188ZM46.4531 41.7375C46.4531 42.0469 46.2 42.3 45.8906 42.3C45.5813 42.3 45.3282 42.0469 45.3282 41.7375V33.1125C45.3282 32.8031 45.5813 32.55 45.8906 32.55C46.2 32.55 46.4531 32.8031 46.4531 33.1125V41.7375Z" fill="#FFC500"/>
<path d="M25.8844 19.8938C25.7625 18.9563 24.9469 18.2438 24 18.2438C23.0438 18.2438 22.2375 18.9469 22.1156 19.8844L21.4313 24.7687C21.2813 25.8094 21.4125 26.8969 21.7969 27.9C22.0782 28.6313 22.7906 29.1187 23.5782 29.1187H24.0094H24.4406C25.2282 29.1187 25.9406 28.6313 26.2218 27.9C26.6062 26.8969 26.7282 25.8187 26.5875 24.7687L25.8844 19.8938ZM24.8062 27.3563C24.75 27.5063 24.5906 27.6187 24.4313 27.6187H24H23.5687C23.4094 27.6187 23.25 27.5156 23.1938 27.3563C22.9031 26.5875 22.8094 25.7625 22.9218 24.975L23.6062 20.0813C23.6344 19.8844 23.8031 19.7438 24.0094 19.7438C24.2062 19.7438 24.3844 19.8938 24.4125 20.0907L25.0969 24.975C25.2 25.7719 25.1062 26.5969 24.8062 27.3563Z" fill="#FFC500"/>
<path d="M24 30.9656C22.7625 30.9656 21.75 31.9781 21.75 33.2156C21.75 34.4531 22.7625 35.4656 24 35.4656C25.2375 35.4656 26.25 34.4531 26.25 33.2156C26.25 31.9781 25.2375 30.9656 24 30.9656ZM24 33.9656C23.5875 33.9656 23.25 33.6281 23.25 33.2156C23.25 32.8031 23.5875 32.4656 24 32.4656C24.4125 32.4656 24.75 32.8031 24.75 33.2156C24.75 33.6281 24.4125 33.9656 24 33.9656Z" fill="#FFC500"/>
</svg>
