<svg width="48" height="48" viewBox="0 0 48 48" fill="none" xmlns="http://www.w3.org/2000/svg">
<path d="M30.6282 22.05C28.4625 22.1438 27.1969 22.5094 26.4094 23.2782C25.5 24.15 25.5 25.2563 25.5 26.0625V26.0907C25.5 27.1782 25.6218 28.3031 26.4938 29.1187C27.2156 29.7938 28.2469 30.0938 29.8594 30.0938C30.1406 30.0938 30.45 30.0844 30.75 30.0656C33.1594 29.9344 34.8094 29.6063 35.5687 28.3875C36.0562 27.6094 36.0656 26.6531 35.5969 25.5469C35.0906 24.2719 34.125 21.9094 30.6282 22.05ZM34.3031 27.5907C33.8625 28.2938 32.2969 28.4813 30.6656 28.5751C30.3844 28.5938 30.1125 28.6031 29.8594 28.6031C28.6782 28.6031 27.9375 28.4251 27.525 28.0407C27.15 27.6844 27 27.1407 27 26.1V26.0625C27 25.2938 27.0282 24.7594 27.45 24.3563C27.9375 23.8782 28.9687 23.6251 30.6938 23.55C33.1406 23.4469 33.7406 24.9282 34.2282 26.1094V26.1187C34.6219 27.0751 34.3875 27.4594 34.3031 27.5907Z" fill="#FFC500"/>
<path d="M27.75 45.0469C28.1625 45.0469 28.5 44.7094 28.5 44.2969V41.1094C28.5 40.6969 28.1625 40.3594 27.75 40.3594C27.3375 40.3594 27 40.6969 27 41.1094V44.2969C27 44.7094 27.3375 45.0469 27.75 45.0469Z" fill="#FFC500"/>
<path d="M24 45.0469C24.4125 45.0469 24.75 44.7094 24.75 44.2969V39.2344C24.75 38.8218 24.4125 38.4844 24 38.4844C23.5875 38.4844 23.25 38.8218 23.25 39.2344V44.2969C23.25 44.7094 23.5875 45.0469 24 45.0469Z" fill="#FFC500"/>
<path d="M17.3625 22.0687C13.8938 21.9 12.9094 24.2813 12.375 25.5562L13.0687 25.8469L12.375 25.5562C11.9156 26.6718 11.925 27.6282 12.4031 28.3969C12.975 29.2969 13.9781 29.8969 17.2218 30.075C17.55 30.0938 17.8406 30.1031 18.1218 30.1031C19.7438 30.1031 20.775 29.8031 21.4875 29.1282C22.3594 28.3031 22.4813 27.1875 22.4813 26.1V26.0718C22.4813 25.2656 22.4813 24.1594 21.5813 23.2969C20.7844 22.5282 19.5187 22.1625 17.3625 22.0687ZM20.9813 26.1094C20.9813 27.15 20.8313 27.6938 20.4562 28.05C20.0531 28.4344 19.3125 28.6125 18.1218 28.6125C17.8782 28.6125 17.6156 28.6031 17.3156 28.5844C15.6938 28.4906 14.1281 28.3125 13.6781 27.6C13.6031 27.4782 13.3687 27.1031 13.7625 26.1282C14.2875 24.8718 14.8781 23.4469 17.2969 23.5687C19.0125 23.6438 20.0438 23.8969 20.5406 24.3844C20.9531 24.7782 20.9813 25.2938 20.9813 26.0813V26.1094Z" fill="#FFC500"/>
<path d="M20.25 45.0469C20.6625 45.0469 21 44.7094 21 44.2969V41.1094C21 40.6969 20.6625 40.3594 20.25 40.3594C19.8375 40.3594 19.5 40.6969 19.5 41.1094V44.2969C19.5 44.7094 19.8375 45.0469 20.25 45.0469Z" fill="#FFC500"/>
<path d="M46.4906 39.6656L46.3969 39.3656C45.375 36.1125 44.4563 33.2625 43.6501 30.8531C43.2938 29.1282 41.2219 19.3594 39.9094 17.55C39.8906 17.5313 39.8813 17.5125 39.8626 17.4938C39.8344 15.0469 39.4406 9.6844 36.7501 6.1875C33.7782 2.33438 28.9688 1.66875 26.5688 1.59375C26.5032 1.49062 26.4375 1.3875 26.3626 1.29375L26.2875 1.2C25.7344 0.496875 24.9001 0.09375 24.0001 0.09375C23.1001 0.09375 22.2657 0.496875 21.7219 1.2L21.6375 1.30313C21.5626 1.39687 21.4969 1.5 21.4313 1.60313C20.1094 1.64062 18.2906 1.85625 16.425 2.53125C14.2594 3.31875 12.525 4.55625 11.2594 6.19687C8.5688 9.6844 8.17504 15.0469 8.14688 17.4938C8.12816 17.5125 8.1188 17.5313 8.10008 17.55C6.75004 19.4062 4.60316 29.6344 4.32192 30.975C2.87816 35.2594 1.57504 39.4782 1.51879 39.6656C1.38754 40.0687 1.54692 40.5094 1.90316 40.7344L11.775 47.1282C12.5344 47.6156 13.4063 47.8782 14.3157 47.8969H14.325C14.3626 47.8969 14.4001 47.8969 14.4375 47.8969H33.525C33.5626 47.8969 33.6 47.8969 33.6375 47.8969H33.6469C34.5282 47.8687 35.4 47.6062 36.1782 47.1282L46.0782 40.725L46.1063 40.7062C46.4813 40.4718 46.6219 40.05 46.4906 39.6656ZM13.0969 45.9656C12.8157 45.6844 12.6657 45.3187 12.6657 44.9156C12.6657 44.5125 12.825 44.1375 13.1063 43.8469C13.6782 43.2656 14.6344 43.2656 15.225 43.8562C15.5063 44.1375 15.6657 44.5031 15.6657 44.9062C15.6657 45.3094 15.5063 45.6844 15.2157 45.975C14.9813 46.2187 14.6626 46.3687 14.3157 46.3969C14.0813 46.3875 13.8469 46.35 13.6219 46.3031C13.4344 46.2375 13.2469 46.1156 13.0969 45.9656ZM16.275 42.7875C15.9094 42.4313 15.4875 42.1782 15.0282 42.0469L21.1219 36.3938C21.6375 36.9469 22.3219 37.0313 22.7063 37.0313H24.0001H25.2938C26.0626 37.0313 26.5594 36.7313 26.8782 36.3938L32.9719 42.0469C32.5126 42.1875 32.0906 42.4313 31.725 42.7875C31.1532 43.35 30.8438 44.1 30.8438 44.8969C30.8438 45.4313 30.9844 45.9469 31.2469 46.4062H16.7626C17.025 45.9562 17.1657 45.4406 17.1657 44.8969C17.1563 44.1 16.8469 43.35 16.275 42.7875ZM21.9282 34.1625C21.9282 33.0187 22.4626 31.6875 23.9813 31.6875H24.0001H24.0188C25.5375 31.6875 26.0719 33.0187 26.0719 34.1625C26.0719 35.5313 25.5657 35.5313 25.2938 35.5313H24.0001H22.7063C22.4344 35.5313 21.9282 35.5313 21.9282 34.1625ZM32.7844 45.9656C32.5032 45.6844 32.3438 45.3 32.3438 44.8969C32.3438 44.5031 32.5032 44.1282 32.7844 43.8469C33.375 43.2656 34.3219 43.2562 34.9032 43.8375C35.4844 44.4282 35.4938 45.375 34.9032 45.9562C34.7626 46.0969 34.5844 46.2094 34.4157 46.275C34.1813 46.3406 33.9375 46.3687 33.6938 46.3875C33.3469 46.3687 33.0282 46.2187 32.7844 45.9656ZM35.7938 42.6187L27.5157 34.9313C27.5532 34.6969 27.5719 34.4344 27.5719 34.1531C27.5719 31.8094 26.1094 30.1782 24.0188 30.1782H24.0001H23.9813C21.8906 30.1782 20.4282 31.8094 20.4282 34.1531C20.4282 34.4344 20.4469 34.6969 20.4844 34.9313L12.2063 42.6187C11.7844 40.7062 11.0813 37.9218 10.0875 35.5031C8.79376 32.3625 7.34066 30.0469 6.60004 28.9594C7.30316 26.9531 7.97816 25.1156 8.51256 23.9156C9.17816 22.4062 10.0875 20.3344 14.1094 20.3344C16.0219 20.3344 17.5688 20.7562 18.9375 21.1313C20.1188 21.45 21.2344 21.75 22.4063 21.75H25.6126C26.7844 21.75 27.9001 21.45 29.0813 21.1313C30.4501 20.7562 31.9969 20.3344 33.9094 20.3344C37.9219 20.3344 38.8406 22.4062 39.5063 23.9156C39.9844 24.9938 40.6219 26.7 41.4094 28.95C40.6688 30.0375 39.2063 32.3531 37.9126 35.5031C36.9188 37.9218 36.2157 40.7062 35.7938 42.6187ZM21.0188 15.6562V20.1C20.4844 19.9969 19.9313 19.8469 19.3313 19.6782C17.8688 19.2844 16.2188 18.8344 14.1094 18.8344C10.8282 18.8344 9.15008 20.0906 8.1844 21.3938C8.61568 19.95 9.00944 18.8438 9.30008 18.4406C11.3157 15.6844 16.0126 15.6562 21.0188 15.6562ZM26.9813 15.6562C31.9782 15.6562 36.6844 15.6844 38.6906 18.4406C38.9813 18.8438 39.375 19.9313 39.7969 21.3562C38.8313 20.0625 37.1532 18.8344 33.9094 18.8344C31.8001 18.8344 30.1501 19.2844 28.6875 19.6782C28.0782 19.8469 27.525 19.9969 26.9813 20.1V15.6562ZM35.5594 7.11562C37.5375 9.6844 38.1375 13.4813 38.3063 16.0218C35.5782 14.175 31.3875 14.1562 26.9813 14.1562V3.12187C29.2406 3.2625 33.1406 3.98438 35.5594 7.11562ZM22.8094 2.23125L22.8844 2.12813C23.1563 1.79062 23.5594 1.59375 23.9906 1.59375C24.4219 1.59375 24.825 1.79062 25.1063 2.1375L25.1813 2.23125C25.3688 2.475 25.4813 2.78438 25.4813 3.09375V20.25H22.5188V3.09375C22.5188 2.78438 22.6219 2.475 22.8094 2.23125ZM12.4406 7.11562C14.8594 3.98438 18.7594 3.2625 21.0188 3.12187V14.1562C16.6126 14.1562 12.4219 14.175 9.69376 16.0218C9.86256 13.4718 10.4626 9.6844 12.4406 7.11562ZM5.98128 30.7594C6.73128 31.9594 7.76254 33.7875 8.70008 36.075C10.1063 39.4969 10.9406 43.8656 11.1375 44.9156L3.08441 39.7031C3.46879 38.4656 4.69692 34.5469 5.98128 30.7594ZM36.8626 44.925C37.0501 43.875 37.8844 39.5062 39.3001 36.075C40.2469 33.7782 41.2782 31.95 42.0282 30.75C42.0844 30.9187 42.1406 31.0875 42.2063 31.2656C42.2063 31.2844 42.2157 31.3031 42.2157 31.3125H42.225C43.0313 33.7031 43.9406 36.525 44.9438 39.7125L36.8626 44.925Z" fill="#FFC500"/>
</svg>
