<svg width="48" height="48" viewBox="0 0 48 48" fill="none" xmlns="http://www.w3.org/2000/svg">
<path d="M16.2187 28.35C19.6969 28.35 22.5282 25.5187 22.5282 22.0407C22.5282 18.5625 19.6969 15.7313 16.2187 15.7313C12.7406 15.7313 9.90936 18.5625 9.90936 22.0407C9.90936 25.5187 12.7406 28.35 16.2187 28.35ZM16.2187 17.2313C18.8718 17.2313 21.0282 19.3875 21.0282 22.0407C21.0282 24.6938 18.8718 26.85 16.2187 26.85C13.5656 26.85 11.4094 24.6938 11.4094 22.0407C11.4094 19.3875 13.5656 17.2313 16.2187 17.2313Z" fill="#FFC500"/>
<path d="M32.7469 23.6438C34.8282 23.6438 36.525 21.9469 36.525 19.8656C36.525 17.7844 34.8282 16.0875 32.7469 16.0875C30.6656 16.0875 28.9687 17.7844 28.9687 19.8656C28.9687 21.9469 30.6656 23.6438 32.7469 23.6438ZM32.7469 17.5875C34.0031 17.5875 35.025 18.6094 35.025 19.8656C35.025 21.1218 34.0031 22.1438 32.7469 22.1438C31.4906 22.1438 30.4687 21.1218 30.4687 19.8656C30.4687 18.6094 31.4906 17.5875 32.7469 17.5875Z" fill="#FFC500"/>
<path d="M47.0438 10.6969C45.5344 8.08128 41.7 7.10625 36.225 7.92188C32.7282 5.25 28.4719 3.79688 23.9907 3.79688C18.5906 3.79688 13.5187 5.89688 9.70313 9.71248C5.88751 13.5282 3.79689 18.6 3.79689 24C3.79689 24.8625 3.85314 25.7156 3.95626 26.5594C0.515635 30.8813 -0.553116 34.6969 0.956255 37.3125C2.11876 39.3282 4.65938 40.3687 8.26873 40.3687C9.34689 40.3687 10.5187 40.275 11.775 40.0875C15.2718 42.7594 19.5282 44.2031 24 44.2031C29.4 44.2031 34.4719 42.1031 38.2875 38.2875C42.1031 34.4718 44.2031 29.4 44.2031 24C44.2031 23.1469 44.1469 22.2938 44.0438 21.4594C45.75 19.3125 46.9218 17.2218 47.4282 15.3282C47.9156 13.5282 47.7844 11.9718 47.0438 10.6969ZM24 5.29688C33.3 5.29688 41.025 12.1125 42.4594 21.0094C39.3 24.7875 34.3969 28.7906 28.6687 32.1C22.9875 35.3813 17.1656 37.6313 12.1969 38.4938C7.98751 35.0625 5.29689 29.8406 5.29689 24C5.29689 13.6875 13.6875 5.29688 24 5.29688ZM2.25001 36.5625C1.20001 34.7438 1.95001 31.875 4.31251 28.575C5.15626 32.2218 7.00314 35.5782 9.71249 38.2875C9.88129 38.4562 10.0406 38.6156 10.2187 38.775C6.16876 39.1594 3.30001 38.3813 2.25001 36.5625ZM34.8938 39.1969C34.6125 38.6813 34.4438 38.0906 34.4438 37.5469C34.4438 35.7282 35.9156 34.2562 37.7344 34.2562C38.2687 34.2562 38.8407 34.4156 39.3469 34.6782C38.1282 36.4218 36.6187 37.95 34.8938 39.1969ZM42.7031 24C42.7031 27.4313 41.775 30.6469 40.1531 33.4125C39.4031 32.9906 38.55 32.7562 37.7344 32.7562C35.0906 32.7562 32.9438 34.9031 32.9438 37.5469C32.9438 38.3906 33.1969 39.2718 33.6375 40.0218C30.825 41.7187 27.525 42.7031 24 42.7031C20.2594 42.7031 16.7813 41.5969 13.8562 39.7031C18.6656 38.6625 24.1125 36.4687 29.4187 33.4031C34.8187 30.2906 39.4313 26.6438 42.6844 23.0625C42.6938 23.3718 42.7031 23.6906 42.7031 24ZM45.9844 14.9344C45.6094 16.3218 44.8218 17.85 43.6875 19.4344C42.8438 15.7782 41.0063 12.4313 38.2875 9.71248C38.1282 9.55312 37.9594 9.39376 37.7906 9.2344C41.8406 8.85 44.7 9.62816 45.75 11.4469C46.2751 12.3656 46.3594 13.5375 45.9844 14.9344Z" fill="#FFC500"/>
</svg>
