<svg width="48" height="48" viewBox="0 0 48 48" fill="none" xmlns="http://www.w3.org/2000/svg">
<path d="M25.1438 18.4218C26.7 19.1062 28.3219 19.4531 29.8782 19.4531C30.7031 19.4531 31.5094 19.3593 32.2782 19.1531C34.5187 18.5718 36.1969 17.2125 37.0031 15.3281C37.8469 13.35 37.6313 11.0625 36.4031 8.89687C35.2406 6.84372 33.2906 5.1281 30.9187 4.08747C28.5375 3.03747 26.0062 2.77497 23.7844 3.34685C21.5438 3.9281 19.8656 5.28748 19.0594 7.17185C18.2156 9.14999 18.4313 11.4375 19.6594 13.6031C20.8218 15.6656 22.7718 17.3718 25.1438 18.4218ZM22.4438 14.8031L25.0313 13.5187C26.025 14.4937 27.4219 15.0749 28.7813 15.0749C29.0344 15.0749 29.2875 15.0562 29.5313 15.0093L31.3782 17.8125C28.3031 18.3843 24.7594 17.1281 22.4438 14.8031ZM25.3125 9.98431C25.5094 9.51559 25.95 9.16871 26.55 9.01871C26.7844 8.96247 27.0282 8.93439 27.2719 8.93439C28.5469 8.93439 29.9344 9.68431 30.5531 10.8C30.8906 11.4 30.9562 12.0093 30.7406 12.5156C30.5438 12.9843 30.1031 13.3312 29.5031 13.4812C28.0782 13.8469 26.2406 13.0312 25.5 11.7C25.1718 11.1093 25.0969 10.4906 25.3125 9.98431ZM35.6156 14.7375C35.1188 15.9093 34.1625 16.8187 32.8782 17.3718L30.9656 14.4749C31.4813 14.1375 31.8844 13.6781 32.1187 13.1156C32.5125 12.1969 32.4187 11.1093 31.8844 10.1156L34.5469 8.78431C34.7438 9.05623 34.9313 9.33751 35.0906 9.62807C36.0844 11.3906 36.2719 13.2 35.6156 14.7375ZM33.5344 7.61247L30.9469 8.90623C29.7375 7.77184 27.9656 7.19997 26.3813 7.51872L24.525 4.70622C25.0687 4.59372 25.6313 4.53747 26.1938 4.53747C28.8375 4.54685 31.5938 5.70935 33.5344 7.61247ZM20.4469 7.76248C20.925 6.6281 21.8344 5.74685 23.0438 5.19372L24.975 8.11871C24.5156 8.44687 24.1594 8.87807 23.9344 9.40311C23.5594 10.2937 23.625 11.3343 24.1218 12.3L21.45 13.6218C21.2813 13.3781 21.1125 13.1249 20.9718 12.8625C19.9782 11.1093 19.7906 9.29999 20.4469 7.76248Z" fill="#FFC500"/>
<path d="M40.9031 7.09687C36.3844 2.57813 30.3844 0.09375 24 0.09375C17.6156 0.09375 11.6156 2.57813 7.09687 7.09687C3.73125 10.4625 1.49062 14.6531 0.571875 19.2187C0.5625 19.2469 0.5625 19.275 0.553124 19.3031C0.309375 20.55 0.159375 21.825 0.1125 23.1187C0.103124 23.175 0.103124 23.2218 0.103124 23.2782C0.103124 23.5125 0.09375 23.7562 0.09375 24C0.09375 29.0906 1.67813 33.9375 4.60313 37.9875C4.60313 37.9875 4.60313 37.9969 4.6125 37.9969C5.35313 39.0187 6.17813 39.9938 7.09687 40.9031C11.6156 45.4218 17.6156 47.9062 24 47.9062C30.3844 47.9062 36.3844 45.4218 40.9031 40.9031C45.4218 36.3844 47.9062 30.3844 47.9062 24C47.9062 17.6156 45.4218 11.6156 40.9031 7.09687ZM8.15624 8.15624C12.3844 3.92813 18.0187 1.59375 24 1.59375C29.9813 1.59375 35.6156 3.92813 39.8438 8.15624C41.7938 10.1062 43.3406 12.3562 44.4375 14.7938C43.1344 15.8156 38.8313 18.9375 31.8562 21.7313C18.2062 27.1782 5.93438 29.2687 2.34375 29.7938C2.14687 29.0625 1.99687 28.3218 1.875 27.5718C3.61875 27.3187 5.45625 27.0187 7.22813 26.6906C12.4218 25.725 17.6344 24.3 21.1687 22.8844C21.5531 22.7344 21.7406 22.2938 21.5813 21.9094C21.4313 21.525 20.9906 21.3375 20.6062 21.4969C17.1562 22.8844 12.0562 24.2718 6.94687 25.2282C5.19375 25.5562 3.39375 25.8469 1.67813 26.1C1.6125 25.4156 1.58438 24.7125 1.58438 24.0187C1.58438 23.9813 1.58438 23.9344 1.58438 23.8969C2.41875 23.7844 3.72187 23.5875 5.41875 23.2969C8.29688 22.8094 12.3656 21.9938 15.45 20.8875C15.8438 20.7469 16.0406 20.3156 15.9 19.9313C15.7594 19.5375 15.3282 19.3406 14.9438 19.4813C11.9625 20.55 7.97813 21.3375 5.15625 21.825C3.6375 22.0875 2.45625 22.2656 1.63125 22.3782C1.6875 21.6094 1.78125 20.8594 1.9125 20.1094C2.57813 20.0156 3.27187 19.9125 3.99375 19.8094C5.8125 19.5187 8.51248 19.0031 10.65 18.4031C11.0531 18.2906 11.2782 17.8782 11.1656 17.475C11.0531 17.0718 10.6406 16.8469 10.2375 16.9594C8.1656 17.5406 5.52187 18.0469 3.75 18.3282C3.225 18.4125 2.71875 18.4875 2.23125 18.5531C2.42813 17.7562 2.67187 16.9687 2.9625 16.2C4.48125 15.975 6.49687 15.6375 8.17504 15.2156C8.57816 15.1125 8.82184 14.7094 8.71872 14.3062C8.6156 13.9031 8.21248 13.6594 7.80938 13.7625C6.46875 14.0906 4.88438 14.3813 3.6375 14.5782C4.7625 12.2062 6.27187 10.0406 8.15624 8.15624ZM39.8438 39.8438C35.6156 44.0718 29.9813 46.4062 24 46.4062C20.4187 46.4062 16.9782 45.5718 13.875 43.9969C15.5438 43.6031 16.9969 43.1906 18.225 42.7594C18.6187 42.6187 18.825 42.1969 18.6844 41.8031C18.5438 41.4094 18.1218 41.2031 17.7282 41.3438C16.1718 41.8875 14.2218 42.4031 11.9344 42.8906C11.1469 42.3844 10.3875 41.8313 9.65624 41.2218C12.1125 40.6782 14.5031 40.0218 16.3782 39.3562C16.7718 39.2156 16.9687 38.7938 16.8375 38.4C16.7062 38.0062 16.275 37.8094 15.8813 37.9406C13.8 38.6813 11.0531 39.4125 8.29688 39.975C8.25 39.9282 8.20312 39.8813 8.15624 39.8438C7.59375 39.2813 7.05938 38.6906 6.5625 38.0718C10.1531 37.3969 13.8562 36.4687 16.6687 35.5406C17.0625 35.4094 17.2782 34.9875 17.1469 34.5938C17.0156 34.2 16.5938 33.9844 16.2 34.1156C12.7687 35.25 8.55 36.1969 5.55938 36.7313C5.1 36.075 4.6875 35.3906 4.30313 34.6969C7.45313 34.1625 14.4282 32.8313 19.6406 30.8813C20.025 30.7313 20.2218 30.3 20.0813 29.9156C19.9313 29.5313 19.5 29.3344 19.1156 29.475C13.7625 31.4813 6.45 32.8218 3.6 33.2906C3.29062 32.625 3.01875 31.9406 2.78438 31.2375C6.68438 30.6469 18.8906 28.5094 32.4094 23.1187C39.1125 20.4375 43.35 17.5125 45.0282 16.2375C45.9375 18.6938 46.4062 21.3094 46.4062 24C46.4062 29.9813 44.0718 35.6156 39.8438 39.8438Z" fill="#FFC500"/>
</svg>
