<svg width="233" height="100" viewBox="0 0 233 100" fill="none" xmlns="http://www.w3.org/2000/svg">
<g clip-path="url(#clip0)">
<path d="M43.6564 54.277L46.8422 63.6584C48.5658 68.7318 50.1047 72.7882 50.3053 72.7882C50.3086 72.7881 50.3118 72.7868 50.3142 72.7846C50.5346 72.5893 56.7702 54.4306 56.7702 54.4306H68.8555L54.2752 97.0321H45.8754C45.8754 97.0321 36.9097 71.0657 36.9464 70.9673L27.5876 96.7052H19.2722L4.87565 54.277L16.9022 54.2847C16.9022 54.2847 23.4902 73.0101 23.578 73.0101L23.5787 73.0093L30.1523 54.2762L43.6564 54.277ZM0.769802 51.3263L2.09298 55.2262L16.4896 97.6544L17.1675 99.653H29.6449L30.3497 97.7148L36.848 79.8443C37.4079 81.4781 38.0131 83.239 38.6183 84.998C40.1092 89.3315 41.6024 93.6641 43.0979 97.996L43.7828 99.9798H56.3745L57.0557 97.9893L71.636 55.3883L72.9724 51.4829H54.6735L53.9908 53.4712C52.7381 57.1189 51.477 60.7637 50.2076 64.4057C50.0114 63.8401 49.817 63.2739 49.6245 62.7071L46.4391 53.326L45.7608 51.3285H28.0707L27.3796 53.2983L23.5387 64.2439C22.2463 60.5988 20.9582 56.9521 19.6746 53.3039L18.983 51.3385L16.9044 51.337L4.87786 51.3293L0.769802 51.3263ZM229.783 54.1119L229.755 65.2782C229.755 65.2782 217.761 65.2384 211.663 65.2384C209.634 65.2384 208.258 65.2436 208.193 65.255C207.143 65.447 206.473 67.688 206.771 68.671C206.917 69.1688 208.018 70.7934 209.207 72.286C210.394 73.7791 212.346 76.222 213.536 77.7131C216.592 81.5382 217.011 82.2931 217.295 84.4896C217.754 88.0574 216.072 91.9178 212.948 94.4639C209.817 97.0173 209.955 97.0354 186.719 97.0354H185.699C171.566 97.0313 164.092 96.9142 163.004 96.6713C161.072 96.2329 157.991 93.7126 149.853 85.8827C146.926 83.0691 144.227 80.6056 144.088 80.6048C144.085 80.6048 144.083 80.6074 144.083 80.6115L143.987 97.0369L130.796 96.9786L130.715 54.6127H160.133C169 54.9336 175 63.7911 173.806 69.4396C173.535 70.7215 172.844 72.5793 172.27 73.5664C171.09 75.593 168.088 78.1944 165.651 79.3112C164.751 79.7191 164.017 80.1944 164.017 80.3639C164.017 80.9939 166.979 83.9188 168.088 84.3834C169.036 84.781 171.795 84.8694 183.966 84.8694L187.863 84.8702C200.097 84.8702 199.481 84.7817 200.426 82.7548C201.088 81.344 200.585 80.5002 195.929 75.2418C190.031 69.3571 190.648 66.5384 190.608 64.4565C190.524 61.9617 192.483 54.1145 202.665 54.1145L229.783 54.1119ZM150.756 73.6844C156.404 73.6844 157.551 73.5967 158.752 73.0731C162.809 71.3041 163.026 66.08 159.135 63.7616C158.282 63.2528 157.187 63.1691 151.065 63.1356L143.981 63.098C144.04 63.1529 143.959 73.2566 143.959 73.2566C143.959 73.2566 145.733 73.6844 150.756 73.6844ZM232.73 51.1642H202.665C196.774 51.1642 193.289 53.4955 191.405 55.452C188.336 58.633 187.616 62.6385 187.671 64.5269C187.674 64.6842 187.672 64.8456 187.67 65.014C187.643 68.083 188.093 71.5572 193.792 77.264C194.917 78.5355 196.801 80.6678 197.514 81.7276C195.957 81.9195 192.01 81.9195 187.863 81.9195H186.102L183.966 81.9188C176.652 81.9188 170.485 81.8974 169.221 81.6476C169.044 81.5326 168.797 81.3329 168.524 81.0956C171.051 79.5359 173.606 77.1166 174.809 75.0488C175.539 73.7912 176.344 71.6431 176.682 70.0498C177.432 66.5034 176.196 62.2251 173.375 58.6024C170.084 54.3757 165.296 51.847 160.24 51.6642L160.187 51.662H127.77L127.776 54.6163L127.858 96.982L127.863 99.9109L130.784 99.9238L143.975 99.982L146.909 99.9945L146.927 97.0516L146.984 87.2118C147.253 87.4678 147.531 87.7346 147.818 88.0091C156.721 96.5722 159.708 98.9451 162.355 99.5454C163.083 99.7075 164.286 99.9772 185.696 99.9831H186.717C198.309 99.9831 204.128 99.9831 207.588 99.6482C211.553 99.2639 212.828 98.3622 214.739 96.801L214.803 96.7491C218.729 93.5479 220.8 88.7055 220.21 84.1108C219.824 81.1225 219.036 79.8812 215.829 75.869L214.876 74.6751C213.751 73.2664 212.627 71.8571 211.504 70.447C210.775 69.5318 210.2 68.7193 209.856 68.1869C210.309 68.1858 210.9 68.185 211.663 68.185C217.687 68.185 229.626 68.2244 229.746 68.2252L232.689 68.2344L232.696 65.2837L232.724 54.1167L232.73 51.1642ZM146.917 70.629L146.931 68.2127C146.934 67.4757 146.938 66.7373 146.938 66.0608L151.049 66.0826C153.412 66.0951 156.967 66.115 157.66 66.3121C158.544 66.8504 159.038 67.6832 158.984 68.5454C158.955 69.0111 158.733 69.8674 157.58 70.3693C156.937 70.6497 155.912 70.7366 150.757 70.7366C149.121 70.7366 147.86 70.6891 146.917 70.629ZM103.988 53.938L118.792 96.6503L106.729 96.7052L104.726 90.2903L83.1569 90.1167L81.2536 96.5394L69.3115 96.4138L83.9286 53.9561L103.988 53.938ZM94.2865 60.2C94.2561 60.3227 92.3964 65.4396 90.5305 70.5554C88.6492 75.7139 86.7616 80.8723 86.7355 80.9121C86.7855 80.8974 93.4657 80.8827 97.7472 80.8827C99.7508 80.8827 101.229 80.8864 101.256 80.893L101.257 80.8948V80.8937L101.256 80.893C101.181 80.6992 94.3082 60.4495 94.2865 60.2L94.2869 60.1978L94.2865 60.2ZM106.077 50.9881L103.985 50.9903L83.9264 51.0091L81.8334 51.0113L81.1503 52.9958L66.5333 95.4536L65.202 99.3199L69.2814 99.3622L81.2234 99.4879L83.4402 99.5111L84.0719 97.3806L85.3455 93.0836L102.562 93.2218L103.924 97.5877L104.573 99.6655L106.743 99.6559L118.807 99.601L122.92 99.5815L121.569 95.6857L106.764 52.9734L106.077 50.9881ZM90.9667 77.939C91.5233 76.4173 92.2733 74.3612 93.2915 71.5686L94.1708 69.157L94.9678 71.5137C95.2052 72.216 96.2483 75.2982 97.1431 77.9357C94.4828 77.9357 92.4802 77.9361 90.9667 77.939ZM108.977 2.95769V13.4958H87.9301V45.7257H75.3818V13.4703L50.8143 13.54C47.8526 13.54 47.4558 15.9055 47.4558 16.8119C47.4558 17.9251 48.1797 19.0375 52.1554 24.0854C54.7349 27.3644 57.1049 30.6367 57.4173 31.3515C59.1222 35.2871 56.9175 41.418 52.9014 43.9088C50.0389 45.6822 50.528 45.726 29.2716 45.726H2.93958V33.8869H38.9126L39.9746 33.1463C40.6911 32.6456 41.1063 31.9565 41.2643 31.0129C41.4848 29.657 41.3709 29.4801 36.9284 24.462C31.6776 18.5293 31.1228 17.4464 31.3947 13.659C31.7033 9.33691 35.5468 3.05791 42.2638 3.05791L108.977 2.95769ZM111.917 0.0055542L108.973 0.0103442L42.259 0.10983C38.4162 0.10983 34.8472 1.77529 32.2122 4.7978C30.0759 7.24845 28.6737 10.4832 28.4621 13.4486C28.1046 18.4269 29.2473 20.2261 34.7293 26.4193C36.3203 28.2163 37.8331 29.9256 38.338 30.6511C38.3326 30.671 38.326 30.6906 38.3181 30.7097C38.3126 30.7144 38.3041 30.7203 38.2924 30.7288L37.9903 30.9392H0V48.6738H29.2716C39.7519 48.6738 44.9248 48.6642 47.9724 48.4394C51.4595 48.1837 52.5721 47.5838 54.2389 46.5455L54.4468 46.4158C59.6874 43.166 62.3881 35.4256 60.1136 30.1765C59.4118 28.5707 54.9682 22.9008 54.4637 22.2597C53.0689 20.4881 50.7665 17.5654 50.402 16.7194C50.4108 16.6487 50.4281 16.5746 50.4464 16.5238C50.5071 16.5083 50.6232 16.4873 50.8143 16.4873L72.4422 16.4258V48.673H90.8697V16.4431H111.917V0.0055542V0.0055542ZM143.172 3.29999L157.936 46.1229L145.895 46.0566L143.94 39.6416L122.467 39.5458L120.548 45.7253H108.287L122.889 3.29999H143.172ZM125.972 30.4267L140.597 30.4083V30.4086C140.647 30.4086 133.489 9.33211 133.442 9.31738C133.39 9.31553 125.807 30.4267 125.972 30.4267ZM145.267 0.352279H120.795L120.112 2.33867L105.509 44.7643L104.164 48.6734H122.714L123.357 46.6015L124.629 42.5038L141.764 42.5801L143.086 46.918L143.719 48.9921L145.882 49.0043L157.924 49.071L162.075 49.0938L160.719 45.1601L145.955 2.33646L145.267 0.352279ZM130.055 27.4742C131.149 24.3617 132.253 21.2528 133.367 18.1476C134.424 21.2523 135.475 24.3585 136.523 27.4661L130.055 27.4742ZM184.638 3.29999C194.163 3.29999 200.772 3.43632 202.044 3.6574C204.984 4.1703 207.64 5.74291 209.631 8.16077C211.715 10.6877 212.193 11.897 212.465 15.3602C212.854 20.2501 210.535 24.469 205.96 27.2059C204.627 28.0055 203.257 28.783 202.915 28.9377C202.389 29.1768 202.46 29.406 203.4 30.5114C204.005 31.2229 205.057 32.2362 205.733 32.7624L206.967 33.7241L229.778 34.052L230.002 45.7253H216.016C205.199 45.7253 201.738 45.6255 200.723 45.2835C199.206 44.7677 195.554 41.6652 188.13 34.5833L182.832 29.5276L182.888 45.7253H169.275V3.29999H184.638ZM182.633 22.3754H189.86C196.894 22.3754 197.114 22.3529 198.117 21.5983C199.911 20.2497 200.546 18.8602 200.355 16.7268C200.161 14.5267 199.315 13.3815 197.195 12.4604C196.001 11.9368 194.85 11.8524 189.214 11.8524H182.633V22.3754ZM184.638 0.352279H166.339V48.673H185.84L185.83 45.7154L185.797 36.4238L186.106 36.7186C195.286 45.4773 197.995 47.4678 199.781 48.0746C201.153 48.5389 203.449 48.673 216.018 48.673H233L232.943 45.6689L232.719 33.9956L232.665 31.1463L229.823 31.1054L207.996 30.7918L207.539 30.4352C207.394 30.3209 207.217 30.1706 207.029 30.0004L207.472 29.7362C212.985 26.4373 215.874 21.1115 215.397 15.1255C215.08 11.0875 214.361 9.26837 211.899 6.28234C209.48 3.34605 206.159 1.3825 202.549 0.753536C200.541 0.404601 190.466 0.352279 184.638 0.352279ZM185.572 14.7998H189.214C194.367 14.7998 195.388 14.8856 196.018 15.1612C197.212 15.6796 197.333 15.9317 197.427 16.9873C197.521 18.0371 197.391 18.459 196.353 19.239L196.271 19.3002C195.586 19.4277 193.043 19.4277 189.86 19.4277H185.572V14.7998Z" fill="#FFC500"/>
</g>
<defs>
<clipPath id="clip0">
<rect width="233" height="100" fill="white"/>
</clipPath>
</defs>
</svg>
